<svg viewBox="0 0 620 290" role="img" aria-label="Сверху длинный столбик полос, каждая короче предыдущей на одинаковую величину; снизу пять полос, каждая вдвое короче предыдущей" xmlns="http://www.w3.org/2000/svg" preserveAspectRatio="xMidYMid meet"><rect class="s-line s-fillsh" x="30.0" y="18.0" width="560.0" height="11.0" rx="2"/><rect class="s-line s-fillsh" x="30.0" y="35.0" width="518.0" height="11.0" rx="2"/><rect class="s-line s-fillsh" x="30.0" y="52.0" width="476.0" height="11.0" rx="2"/><rect class="s-line s-fillsh" x="30.0" y="69.0" width="434.0" height="11.0" rx="2"/><rect class="s-line s-fillsh" x="30.0" y="86.0" width="392.0" height="11.0" rx="2"/><rect class="s-line s-fillsh" x="30.0" y="103.0" width="350.0" height="11.0" rx="2"/><rect class="s-line s-fillsh" x="30.0" y="120.0" width="308.0" height="11.0" rx="2"/><rect class="s-line s-fillsh" x="30.0" y="137.0" width="266.0" height="11.0" rx="2"/><rect class="s-line s-fillsh" x="30.0" y="154.0" width="224.0" height="11.0" rx="2"/><circle class="s-node" cx="38.0" cy="177.0" r="2.6"/><circle class="s-node" cx="51.0" cy="177.0" r="2.6"/><circle class="s-node" cx="64.0" cy="177.0" r="2.6"/><rect class="s-node-a" x="30.0" y="190.0" width="560.0" height="11.0" rx="2"/><rect class="s-node-a" x="30.0" y="207.0" width="280.0" height="11.0" rx="2"/><rect class="s-node-a" x="30.0" y="224.0" width="140.0" height="11.0" rx="2"/><rect class="s-node-a" x="30.0" y="241.0" width="70.0" height="11.0" rx="2"/><rect class="s-node-a" x="30.0" y="258.0" width="35.0" height="11.0" rx="2"/></svg>